<svg width="39" height="11" viewBox="0 0 39 11" fill="none" xmlns="http://www.w3.org/2000/svg">
<path d="M11.312 9.96802H7.84V9.56202C8.02667 9.48735 8.21333 9.42668 8.4 9.38002C8.58667 9.32402 8.778 9.27268 8.974 9.22602V2.92602L9.03 1.28802H8.918L8.456 2.78602L5.586 9.96802H5.222L2.492 2.78602L1.988 1.14802H1.862L1.876 2.92602V9.22602C2.05333 9.26335 2.23067 9.31002 2.408 9.36602C2.58533 9.42202 2.76267 9.48735 2.94 9.56202V9.96802H0.0139999V9.56202C0.191333 9.48735 0.373333 9.42202 0.559999 9.36602C0.755999 9.30068 0.952001 9.24935 1.148 9.21202V0.924015C0.952001 0.886682 0.755999 0.840015 0.559999 0.784016C0.373333 0.718682 0.186667 0.648682 0 0.574016V0.168015H2.87L5.306 6.56602L5.782 8.00802H5.796L6.272 6.53802L8.792 0.168015H11.326V0.574016C11.158 0.648682 10.9853 0.718682 10.808 0.784016C10.6307 0.840015 10.4487 0.886682 10.262 0.924015V9.24002C10.458 9.27735 10.64 9.32402 10.808 9.38002C10.9853 9.42668 11.1533 9.48735 11.312 9.56202V9.96802Z" fill="white"/>
<path d="M12.4766 5.06802C12.4766 4.34002 12.5746 3.66802 12.7706 3.05202C12.976 2.42668 13.2653 1.89002 13.6386 1.44202C14.0213 0.984682 14.488 0.630015 15.0386 0.378015C15.5893 0.126015 16.2146 1.52588e-05 16.9146 1.52588e-05C17.6146 1.52588e-05 18.24 0.126015 18.7906 0.378015C19.3413 0.630015 19.8033 0.984682 20.1766 1.44202C20.5593 1.89002 20.8486 2.42668 21.0446 3.05202C21.25 3.66802 21.3526 4.34002 21.3526 5.06802C21.3526 5.79602 21.25 6.47268 21.0446 7.09801C20.8486 7.71402 20.5593 8.25068 20.1766 8.70802C19.8033 9.15602 19.3413 9.50602 18.7906 9.75802C18.24 10.01 17.6146 10.136 16.9146 10.136C16.2146 10.136 15.5893 10.01 15.0386 9.75802C14.488 9.50602 14.0213 9.15602 13.6386 8.70802C13.2653 8.25068 12.976 7.71402 12.7706 7.09801C12.5746 6.47268 12.4766 5.79602 12.4766 5.06802ZM13.9746 5.06802C13.9746 5.66535 14.0353 6.23002 14.1566 6.76202C14.2873 7.28468 14.4786 7.74202 14.7306 8.13402C14.9826 8.52602 15.3 8.83868 15.6826 9.07202C16.0653 9.29602 16.518 9.40802 17.0406 9.40802C17.5166 9.40802 17.932 9.29602 18.2866 9.07202C18.6413 8.83868 18.9306 8.52602 19.1546 8.13402C19.388 7.74202 19.5606 7.28468 19.6726 6.76202C19.794 6.23002 19.8546 5.66535 19.8546 5.06802C19.8546 4.47068 19.794 3.91068 19.6726 3.38802C19.5513 2.85602 19.3646 2.39402 19.1126 2.00202C18.8606 1.61002 18.5433 1.30202 18.1606 1.07802C17.778 0.844682 17.3253 0.728015 16.8026 0.728015C16.2893 0.728015 15.8506 0.844682 15.4866 1.07802C15.132 1.30202 14.8426 1.61002 14.6186 2.00202C14.3946 2.39402 14.2313 2.85602 14.1286 3.38802C14.026 3.91068 13.9746 4.47068 13.9746 5.06802Z" fill="white"/>
<path d="M24.9959 9.22602C25.2106 9.27268 25.4159 9.32402 25.6119 9.38002C25.8079 9.42668 25.9992 9.48735 26.1859 9.56202V9.96802H22.5039V9.56202C22.7092 9.46868 22.9052 9.39868 23.0919 9.35202C23.2786 9.30535 23.4652 9.26335 23.6519 9.22602V0.924015C23.4092 0.877348 23.1946 0.826016 23.0079 0.770016C22.8212 0.704682 22.6532 0.639349 22.5039 0.574016V0.168015H23.7359C24.1092 0.168015 24.5152 0.149348 24.9539 0.112015C25.4019 0.0746819 25.8359 0.056016 26.2559 0.056016C26.7132 0.056016 27.1379 0.107349 27.5299 0.210015C27.9312 0.312682 28.2766 0.476015 28.5659 0.700015C28.8552 0.924016 29.0792 1.20868 29.2379 1.55402C29.4059 1.89935 29.4899 2.31468 29.4899 2.80002C29.4899 3.48135 29.3079 4.04601 28.9439 4.49401C28.5892 4.94201 28.1039 5.26402 27.4879 5.46002C27.8892 6.09468 28.3092 6.72468 28.7479 7.35002C29.1866 7.97535 29.6439 8.59601 30.1199 9.21202L30.8759 9.61802V9.96802H29.1819L28.6499 9.57602C28.3886 9.24935 28.1506 8.93202 27.9359 8.62402C27.7212 8.30668 27.5206 7.98935 27.3339 7.67202C27.1472 7.34535 26.9699 7.01868 26.8019 6.69201C26.6432 6.35601 26.4799 6.00135 26.3119 5.62802H24.9959V9.22602ZM25.9479 0.784016C25.7239 0.784016 25.5372 0.788682 25.3879 0.798016C25.2479 0.807349 25.1172 0.826015 24.9959 0.854015V5.04002H26.0039C26.6479 5.04002 27.1566 4.83468 27.5299 4.42402C27.9126 4.01335 28.1039 3.47202 28.1039 2.80002C28.1039 2.10935 27.9032 1.60068 27.5019 1.27402C27.1006 0.947349 26.5826 0.784016 25.9479 0.784016Z" fill="white"/>
<path d="M38.054 0.168015C38.0446 0.541348 38.026 0.919349 37.998 1.30202C37.9793 1.67535 37.9466 2.05335 37.9 2.43602H37.536L36.962 0.896015H33.91V4.60602H36.192L36.738 3.57001H37.088C37.144 4.49402 37.144 5.43668 37.088 6.39802H36.738L36.192 5.33401H33.91V9.24002H37.13L37.816 7.56001H38.166C38.2313 7.95201 38.278 8.34868 38.306 8.75002C38.334 9.15135 38.3386 9.55735 38.32 9.96802H31.418V9.56202C31.7446 9.41268 32.1273 9.30068 32.566 9.22602V0.924015C32.3793 0.886682 32.188 0.840015 31.992 0.784016C31.796 0.718682 31.6046 0.648682 31.418 0.574016V0.168015H38.054Z" fill="white"/>
</svg>
